<?xml version="1.0" encoding="UTF-8" standalone="no"?>
<!-- Created with Inkscape (http://www.inkscape.org/) -->

<svg
   xmlns:dc="http://purl.org/dc/elements/1.1/"
   xmlns:cc="http://creativecommons.org/ns#"
   xmlns:rdf="http://www.w3.org/1999/02/22-rdf-syntax-ns#"
   xmlns:svg="http://www.w3.org/2000/svg"
   xmlns="http://www.w3.org/2000/svg"
   xmlns:sodipodi="http://sodipodi.sourceforge.net/DTD/sodipodi-0.dtd"
   xmlns:inkscape="http://www.inkscape.org/namespaces/inkscape"
   width="372.04724"
   height="262.20471"
   id="svg2"
   version="1.1"
   inkscape:version="0.48.3.1 r9886"
   sodipodi:docname="New document 1">
  <defs
     id="defs4" />
  <sodipodi:namedview
     id="base"
     pagecolor="#ffffff"
     bordercolor="#666666"
     borderopacity="1.0"
     inkscape:pageopacity="0.0"
     inkscape:pageshadow="2"
     inkscape:zoom="0.35"
     inkscape:cx="375"
     inkscape:cy="74.568271"
     inkscape:document-units="px"
     inkscape:current-layer="layer1"
     showgrid="false"
     inkscape:window-width="761"
     inkscape:window-height="725"
     inkscape:window-x="431"
     inkscape:window-y="121"
     inkscape:window-maximized="0" />
  <metadata
     id="metadata7">
    <rdf:RDF>
      <cc:Work
         rdf:about="">
        <dc:format>image/svg+xml</dc:format>
        <dc:type
           rdf:resource="http://purl.org/dc/dcmitype/StillImage" />
        <dc:title></dc:title>
      </cc:Work>
    </rdf:RDF>
  </metadata>
  <g
     inkscape:label="Layer 1"
     inkscape:groupmode="layer"
     id="layer1"
     transform="translate(0,-790.15746)">
    <rect
       style="fill:#ff0000;stroke:#800000;stroke-width:1.5"
       id="rect2985"
       width="197.14285"
       height="100"
       x="82.85714"
       y="50.776142"
       transform="translate(0,790.15746)" />
    <path
       sodipodi:type="arc"
       style="fill:#000000;stroke:#800000;stroke-width:8"
       id="path2987"
       sodipodi:cx="122.85714"
       sodipodi:cy="233.63329"
       sodipodi:rx="80"
       sodipodi:ry="102.85715"
       d="m 90.16031,139.75926 a 80,102.85715 0 0 1 83.10764,14.00694 l -50.41081,79.86709 z"
       transform="translate(108.57143,747.30032)"
       sodipodi:start="4.2913484"
       sodipodi:end="5.3941162" />
    <path
       style="fill:#00ff00;stroke:#000000;stroke-width:3;stroke-linecap:butt;stroke-linejoin:miter;stroke-opacity:1"
       d="m 57.142857,213.63328 c -0.952381,-3.80952 -2.08704,-7.57806 -2.857143,-11.42857 -0.560332,-2.80166 0,-5.71428 0,-8.57143 0,-7.61904 0,-15.23809 0,-22.85714 0,-2.97121 -0.561869,-14.89538 0,-17.14286 0.516501,-2.066 2.340642,-3.64828 2.857143,-5.71428 0.461973,-1.84789 -0.602338,-3.90727 0,-5.71429 0.425918,-1.27775 2.431225,-1.57939 2.857143,-2.85714 0,-13.00653 -1.34687,-0.1634 2.857143,-8.57143 0.851835,-1.70367 -1.34687,-4.36742 0,-5.71429 0.673435,-0.67343 2.183708,0.67344 2.857143,0 0.781777,-0.78177 -0.774983,-9.8786 0,-11.42857 0.602338,-1.20467 2.254804,-1.65246 2.857143,-2.85714 0.851835,-1.70367 -0.851836,-4.01061 0,-5.71429 0.602338,-1.20467 2.254804,-1.65246 2.857142,-2.85714 0.851836,-1.70367 -0.851835,-4.010613 0,-5.714284 0.602339,-1.204677 2.254805,-1.652465 2.857143,-2.857143 0.425918,-0.851835 -0.673435,-2.183707 0,-2.857143 0.673435,-0.673435 1.904762,0 2.857143,0 0.952381,0 1.904762,0 2.857143,0 2.025149,0 16.404141,-0.369358 17.142857,0 9.475953,9.47595 -2.69374,-1.34687 5.714283,2.857143 1.20468,0.602339 1.65247,2.254805 2.85715,2.857143 1.70367,0.851836 4.36741,-1.34687 5.71428,0 0.67344,0.673435 -0.42592,2.005308 0,2.857143 0.60234,1.204681 1.90476,1.904761 2.85714,2.857141 0.95239,0.95238 1.65247,2.25481 2.85715,2.85714 0.85183,0.42592 2.1837,-0.67343 2.85714,0 0.67344,0.67344 -0.42592,2.00531 0,2.85715 0.60234,1.20467 2.2548,1.65246 2.85714,2.85714 0.42592,0.85184 -0.67343,2.18371 0,2.85714 0.67344,0.67344 2.18371,-0.67343 2.85715,0 0.67343,0.67344 -0.67344,2.18371 0,2.85715 5.91153,5.91153 -0.23109,-9.03361 5.71428,2.85714 0.42592,0.85183 -0.30117,1.95363 0,2.85714 0.67344,2.02031 2.18371,3.69398 2.85714,5.71429 0.60234,1.80701 -0.85183,4.01061 0,5.71428 6.53801,13.07602 -1.1842,-12.12404 5.71429,8.57143 0.53733,1.612 0,6.69398 0,8.57143 0,7.61905 0,15.2381 0,22.85714 0,1.28674 -0.43476,7.70191 0,8.57143 0.60234,1.20468 2.2548,1.65247 2.85714,2.85714 0.85184,1.70368 -0.85183,4.01062 0,5.71429 0.60234,1.20468 2.25481,1.65247 2.85715,2.85714 0.42591,0.85184 -0.67344,2.18371 0,2.85715 0.67343,0.67343 2.1837,-0.67344 2.85714,0 5.91153,5.91153 -9.0336,-0.23109 2.85714,5.71428 0.85184,0.42592 2.00531,-0.42592 2.85714,0 1.20468,0.60234 1.65247,2.25481 2.85715,2.85714 1.70367,0.85184 4.01061,-0.85183 5.71428,0 1.20468,0.60234 1.65247,2.25481 2.85715,2.85715 1.03323,0.51662 12.29845,0 14.28571,0 0.69293,0 8.47954,0.0919 8.57143,0 0.67343,-0.67344 -0.67344,-2.18371 0,-2.85715 0.0919,-0.0919 7.87849,0 8.57143,0"
       id="path2989"
       inkscape:connector-curvature="0"
       transform="translate(0,790.15746)" />
    <path
       style="fill:none;stroke:#000000;stroke-width:1px;stroke-linecap:butt;stroke-linejoin:miter;stroke-opacity:1"
       d="m 437.14286,33.633283 80,-282.857143"
       id="path2991"
       inkscape:connector-curvature="0"
       transform="translate(0,790.15746)" />
  </g>
</svg>
